<?xml version="1.0" standalone="no"?><!DOCTYPE svg PUBLIC "-//W3C//DTD SVG 1.1//EN" "http://www.w3.org/Graphics/SVG/1.1/DTD/svg11.dtd"><svg t="1577676175680" class="icon" viewBox="0 0 1024 1024" version="1.1" xmlns="http://www.w3.org/2000/svg" p-id="4606" xmlns:xlink="http://www.w3.org/1999/xlink" width="200" height="200"><defs><style type="text/css"></style></defs><path d="M920.8 281.57c20.35 16.94 29.72 42.82 27.69 69.18-25 7.21-51.82 3-72.17-14s-29.71-42.83-27.69-69.18c25.02-7.18 51.83-2.94 72.17 14z" fill="#FFFFFF" p-id="4607"></path><path d="M793.69 316.8c86.91 135-27 329.47-157.56 420.45-203 141.48-513.46 70.58-560.9-25.28 211.24-140.72 166-232.72 307.91-392.72 134.94-152.13 323.26-138 410.55-2.45z" fill="#FFD72E" p-id="4608"></path><path d="M361.09 838.3c-48.95 0-98.15-5.93-143.29-17.52C135.95 799.77 77 763.55 56.18 721.4a21.26 21.26 0 0 1 7.27-27.12c122.72-81.75 155-145.32 192.44-218.92 24.93-49 53.19-104.64 111.35-170.21 36.59-41.25 77.94-72.23 122.88-92.05 42.41-18.71 87.71-26.84 131-23.51a242 242 0 0 1 107.18 34.08c33.26 20 61.27 47.46 83.27 81.62 23 35.71 34.37 76.63 33.79 121.62-0.52 40-10.43 82.1-29.45 125.19-34.26 77.57-96.91 153.31-167.62 202.59C587.61 797 512.13 824.5 430 834.28a584.75 584.75 0 0 1-68.91 4.02zM104.78 717.53c8.27 9.16 19.87 18.25 34.34 26.84 23.92 14.2 54.78 26.38 89.25 35.23 61.55 15.8 131.37 20.22 196.62 12.46 75.21-9 144-33.94 199-72.25 64.59-45 121.79-114.13 153-184.88 16.7-37.82 25.39-74.35 25.83-108.57 0.47-36.49-8.62-69.48-27-98s-41.8-51.58-69.44-68.2a199.85 199.85 0 0 0-88.5-28.16c-36.86-2.83-74.07 3.9-110.6 20C468 269.33 431.55 296.71 399 333.36c-54.54 61.49-80.32 112.21-105.25 161.26-36.63 72.14-71.35 140.47-188.97 222.91z" fill="#26251E" p-id="4609"></path><path d="M796.87 327.73A21.26 21.26 0 0 1 781.33 292l92.84-99.51a21.26 21.26 0 1 1 31.09 29L812.42 321a21.2 21.2 0 0 1-15.55 6.73z" fill="#26251E" p-id="4610"></path><path d="M925.25 375.32a97.39 97.39 0 0 1-62.53-22.21c-25.07-20.87-37.93-52.63-35.29-87.14a21.26 21.26 0 0 1 15.31-18.8c32.56-9.38 66.82-2.63 91.66 18.06 25.08 20.88 37.94 52.64 35.28 87.15a21.26 21.26 0 0 1-15.31 18.8 105.24 105.24 0 0 1-29.12 4.14z m23.25-24.58z m-78-65.25c2.27 14 9 26.24 19.45 34.94a54.25 54.25 0 0 0 36.73 12.41c-2.27-14-9-26.24-19.45-34.94a54.49 54.49 0 0 0-36.75-12.4zM431.32 426.35a21.27 21.27 0 0 1-20-28.42c32-89.51 114.78-114.22 118.29-115.23l11.74 40.87h0.09c-0.17 0-16.95 5.13-36.45 18.84-25.39 17.84-43.44 41.35-53.63 69.86a21.27 21.27 0 0 1-20.04 14.08z" fill="#26251E" p-id="4611"></path></svg>